<svg xmlns="http://www.w3.org/2000/svg"><style>:root svg:not(:target){display:none}</style><svg fill="none" id="icon-burger" viewBox="0 0 82 68"><path d="M76.529 45.332H5.36c-2.526 0-4.527 1.971-4.527 4.238v3.45c0 2.266 2 4.138 4.527 4.138h1.053v.986c0 5.42 4.738 9.756 10.423 9.756h48.217c5.79 0 10.423-4.435 10.423-9.756v-.986h1.053c2.421 0 4.526-1.872 4.526-4.237v-3.45c0-2.168-2-4.139-4.526-4.139Zm-4.106 12.812c0 3.745-3.264 6.8-7.264 6.8H16.73c-4 0-7.264-3.055-7.264-6.8v-.986h62.957v.986Zm5.474-5.223c0 .69-.632 1.28-1.368 1.28H5.36c-.737 0-1.368-.59-1.368-1.28v-3.45c0-.59.631-1.182 1.368-1.182h71.274c.737 0 1.368.591 1.368 1.281v3.35h-.105ZM17.889 37.35l5.684 3.941 5.79-3.941 5.791 3.941 5.79-3.941 5.685 3.941 5.79-3.941 5.791 3.941L64 37.35l5.79 3.941 6.633-4.631-1.79-2.365-4.842 3.252L64 33.605l-5.79 3.942-5.791-3.942-5.79 3.942-5.686-3.942-5.79 3.942-5.79-3.942-5.79 3.942-5.686-3.942-5.79 3.942-4.843-3.252L5.36 36.66l6.738 4.632 5.79-3.942ZM75.476 30.649c0-.592.105-2.563 0-2.957C74.739 12.32 59.579 0 40.944 0 22.31 0 7.044 12.319 6.308 27.692v2.957h69.168ZM40.944 2.956c16.845 0 30.742 11.038 31.373 24.736H9.467C10.202 13.994 24.1 2.956 40.943 2.956Z" fill="#81B3D2"></path><path d="M40.944 16.753c1.163 0 2.106-.882 2.106-1.97 0-1.09-.943-1.972-2.106-1.972-1.162 0-2.105.883-2.105 1.971 0 1.089.943 1.971 2.105 1.971ZM32.522 11.924c1.163 0 2.106-.882 2.106-1.971s-.943-1.97-2.106-1.97c-1.163 0-2.105.881-2.105 1.97s.942 1.971 2.105 1.971ZM49.367 11.924c1.163 0 2.105-.882 2.105-1.971s-.942-1.97-2.105-1.97-2.106.881-2.106 1.97.943 1.971 2.106 1.971Z" fill="#81B3D2"></path></svg><svg fill="none" id="icon-copyright" viewBox="0 0 29 36"><g clip-path="url(#icon-copyright_0)"><path d="M14.65.95h-.1l-13.5 1.4v24.7l13.5 8 13.4-8V2.35L14.65.95Zm11.4 12.1-11.5-6.8v-.1h-.1l-.1-.1v.1l-11.4 6.9v-9l11.5-1.2 11.6 1.2v9Zm-11.6-5.3 11.5 6.7-4.5 2.6-7.1-4.2v1.4l5.9 3.5-.9.5-5-3v1.4l3.8 2.3-.8.5-3-1.8v1.4l1.9 1.1-1.8 1.1-11.4-6.7 11.4-6.8Zm-11.5 8.3 11.4 6.8v1l-7.9-4.7v1.4l8 4.8v1.1l-8-4.7v1.4l8 4.8 8.1-4.9v-5.2l3.4-2v10l-11.5 6.9-11.5-6.8v-9.9Z" fill="#000"></path></g><defs><clipPath id="icon-copyright_0"><path fill="#fff" transform="translate(.5 .5)" d="M0 0h28v35H0z"></path></clipPath></defs></svg><svg fill="none" id="icon-gift" viewBox="0 0 67 75"><path d="M64.016 22.117H38.258C52.615 15.319 53.776 11.02 53.248 8.62c-1.16-3.899-5.911-6.898-10.345-5.298-5.806 2.099-7.39 10.296-8.973 16.194-2.006-5.998-3.906-13.595-8.445-17.494-1.267-1.1-3.167-2.2-6.017-2-4.223.4-10.24 5.299-7.706 10.797 2.322 5.299 10.028 8.697 15.2 11.397H3.423c-1.689 0-2.956 1.3-2.956 2.799v11.196c0 1.6 1.373 2.8 2.956 2.8h.317V75H63.91V39.011h.106c1.689 0 2.956-1.3 2.956-2.799V25.016c0-1.6-1.373-2.9-2.956-2.9ZM44.592 5.822c2.217-.3 5.173 1.3 5.49 3.199.422 2.699-3.484 5.198-5.279 6.298-2.639 1.7-5.172 2.599-7.6 3.999.844-3.7 2.639-12.896 7.39-13.496Zm-23.857 9.797c-2.323-1.5-6.756-4.399-6.65-7.698.105-3.599 6.016-6.498 9.183-3.799 4.012 3.3 5.912 10.997 7.39 16.395-3.378-1.6-6.545-2.799-9.923-4.898ZM26.963 72H6.8V39.01h20.163v32.99Zm0-35.989H3.633V25.116h23.33v10.896Zm10.556 35.989h-7.495V25.116h7.495V72Zm23.224 0H40.686V39.01H60.85v32.99h-.105Zm3.062-35.989H40.686V25.116h23.119v10.896Z" fill="#81B3D2"></path></svg><svg fill="none" id="icon-house" viewBox="0 0 78 72"><path d="M30.878 64.939h16.499V41.17H30.878v23.768Zm13.508-2.884H33.87v-18h10.414v18h.103Z" fill="#81B3D2"></path><path d="m75.321 39.182 2.166-2.088-10.209-9.845V.398h-14.23v13.127L38.921 0 .46 37.193l2.166 2.089 8.043-7.757v37.591H6.646V72h65.891v-2.884h-5.259v-37.69l8.043 7.756ZM56.04 3.382h8.146v20.983l-8.147-7.857V3.381Zm8.249 65.635H13.76V28.54l25.16-24.364L64.185 28.54v40.476h.103Z" fill="#81B3D2"></path><path d="M31.188 27.05c0 4.275 3.609 7.756 7.94 7.756 4.434 0 8.043-3.48 8.043-7.757 0-4.276-3.61-7.657-8.043-7.657-4.434 0-7.94 3.38-7.94 7.657Zm7.94-4.973c2.784 0 5.155 2.188 5.155 4.972 0 2.685-2.268 4.972-5.155 4.972-2.784 0-5.156-2.187-5.156-4.972 0-2.685 2.372-4.972 5.156-4.972ZM20.98 41.17h-3.094v3.88h3.093v-3.88ZM27.063 41.17H23.97v3.88h3.093v-3.88ZM20.98 47.139h-3.094v3.878h3.093V47.14ZM27.063 47.139H23.97v3.878h3.093V47.14ZM53.873 41.17H50.78v3.88h3.093v-3.88ZM60.06 41.17h-3.093v3.88h3.093v-3.88ZM53.873 47.139H50.78v3.878h3.093V47.14ZM60.06 47.139h-3.093v3.878h3.093V47.14Z" fill="#81B3D2"></path></svg><svg fill="none" id="icon-like" viewBox="0 0 23 21"><path opacity=".3" d="m12.964 3.78-.628 3.045-.627 2.625h9.096v2.205L17.773 18.9h-9.41V8.4l4.6-4.62ZM2.09 10.5v8.4-8.4ZM13.8 0 6.9 6.93c-.418.315-.627.84-.627 1.47v10.5c0 1.155.94 2.1 2.09 2.1h9.41c.836 0 1.568-.525 1.881-1.26l3.137-7.455c.104-.21.104-.525.104-.735v-2.1H23c0-1.155-.94-2.1-2.09-2.1h-6.587l1.045-4.83v-.315c0-.42-.209-.84-.418-1.155L13.8 0ZM4.182 8.4H0V21h4.182V8.4Z" fill="#000"></path></svg><svg fill="none" id="icon-mail" viewBox="0 0 18 18"><path d="M9 11c-.3 0-.5-.1-1-.3L1 7v7c0 .5.5 1 1 1h14c.5 0 1-.5 1-1V7l-7 3.7c-.5.2-.7.3-1 .3Zm7-8H2c-.5 0-1 .5-1 1v.8L9 9l8-4.2V4c0-.5-.5-1-1-1Z" fill="#000"></path></svg><svg fill="none" id="icon-map" viewBox="0 0 27 27"><path d="M13.5 27C20.956 27 27 20.956 27 13.5S20.956 0 13.5 0 0 6.044 0 13.5 6.044 27 13.5 27Z" fill="#fff"></path><path d="M13.5 21.9a8.4 8.4 0 1 0 0-16.8 8.4 8.4 0 0 0 0 16.8Z" fill="#81B3D3"></path></svg><svg fill="none" id="icon-phone" viewBox="0 0 18 18"><path d="M3.6 7.8c1.4 2.8 3.8 5.1 6.6 6.6l2.2-2.2c.3-.3.7-.4 1-.2 1.1.4 2.3.6 3.6.6.6 0 1 .4 1 1V17c0 .6-.4 1-1 1C7.6 18 0 10.4 0 1c0-.6.4-1 1-1h3.5c.6 0 1 .4 1 1 0 1.2.2 2.4.6 3.6.1.3 0 .7-.2 1L3.6 7.8Z" fill="#010101"></path></svg><svg fill="none" id="icon-telegram" viewBox="0 0 25 24"><path d="m22.94 4.622-3.17 14.944c-.239 1.055-.862 1.317-1.748.82l-4.828-3.558-2.33 2.242c-.258.258-.473.473-.97.473l.347-4.917 8.948-8.086c.39-.346-.084-.54-.604-.192L7.522 13.314 2.76 11.823c-1.036-.323-1.055-1.036.216-1.533l18.627-7.177c.863-.323 1.617.192 1.336 1.51Z" fill="#fff"></path></svg><svg fill="none" id="icon-tick" viewBox="0 0 22 16"><path d="M21.805 1.307 20.76.222c-.285-.296-.856-.296-1.141 0L8.298 11.957 2.403 5.843c-.286-.296-.856-.296-1.142 0L.214 6.928c-.285.295-.285.887 0 1.183l7.419 7.692c.19.197.38.197.57.197.191 0 .381-.099.571-.197L21.615 2.49c.476-.296.476-.789.19-1.183Z" fill="#333"></path></svg><svg fill="none" id="icon-video" viewBox="0 0 48 54"><path d="M48 27 0 54V0l48 27Z" fill="#fff" fill-opacity=".7"></path></svg><svg fill="none" id="icon-vk" viewBox="0 0 25 24"><g clip-path="url(#icon-vk_0)"><path fill-rule="evenodd" clip-rule="evenodd" d="M23.95 5.948c.166-.546 0-.948-.795-.948H20.53c-.668 0-.976.347-1.143.73 0 0-1.335 3.196-3.226 5.272-.612.602-.89.793-1.224.793-.167 0-.418-.191-.418-.738V5.948c0-.656-.184-.948-.74-.948H9.651c-.417 0-.668.304-.668.593 0 .621.946.765 1.043 2.513v3.798c0 .833-.153.984-.487.984-.89 0-3.055-3.211-4.34-6.885C4.95 5.288 4.698 5 4.027 5H1.4c-.75 0-.9.347-.9.73 0 .682.89 4.07 4.145 8.551C6.815 17.341 9.87 19 12.653 19c1.669 0 1.875-.368 1.875-1.003v-2.313c0-.737.158-.884.687-.884.39 0 1.057.192 2.615 1.667C19.61 18.216 19.903 19 20.905 19h2.625c.75 0 1.126-.368.91-1.096-.238-.724-1.088-1.775-2.215-3.022-.612-.71-1.53-1.475-1.809-1.858-.389-.491-.278-.71 0-1.147 0 0 3.2-4.426 3.533-5.929h.001Z" fill="#fff"></path></g><defs><clipPath id="icon-vk_0"><path fill="#fff" transform="translate(.5)" d="M0 0h24v24H0z"></path></clipPath></defs></svg><svg fill="none" id="icon-youtube" viewBox="0 0 25 24"><path d="M19.681 5H5.313C3.806 5 2.5 6.3 2.5 7.8v8.3c0 1.6 1.306 2.9 2.813 2.9h14.368c1.608 0 2.814-1.3 2.814-2.8V7.8c.1-1.5-1.206-2.8-2.814-2.8ZM9.533 15.4V8.6l6.833 3.4-6.833 3.4Z" fill="#fff"></path></svg></svg>